<svg width="50" height="50" viewBox="0 0 50 50" fill="none" xmlns="http://www.w3.org/2000/svg">
<path d="M23.4107 4.09464C23.8711 3.75528 24.4281 3.5722 25 3.5722C25.572 3.5722 26.1289 3.75528 26.5893 4.09464L43.5482 16.6036C45.5554 18.0857 44.6161 21.2071 42.2268 21.425H7.77323C5.38394 21.2071 4.44644 18.0857 6.4518 16.6036L23.4125 4.09464H23.4107ZM25 16.0696C25.7104 16.0696 26.3917 15.7874 26.8941 15.2851C27.3964 14.7828 27.6786 14.1015 27.6786 13.3911C27.6786 12.6807 27.3964 11.9994 26.8941 11.497C26.3917 10.9947 25.7104 10.7125 25 10.7125C24.2896 10.7125 23.6083 10.9947 23.106 11.497C22.6037 11.9994 22.3214 12.6807 22.3214 13.3911C22.3214 14.1015 22.6037 14.7828 23.106 15.2851C23.6083 15.7874 24.2896 16.0696 25 16.0696V16.0696ZM34.8214 23.2125H39.2839V33.9268H34.8197V23.2125H34.8214ZM31.25 33.9268V23.2125H26.7857V33.9268H31.25ZM23.2143 33.9286V23.2143H18.75V33.9286H23.2143ZM15.1804 33.9286V23.2143H10.7161V33.9286H15.1804ZM11.1625 35.7143C9.62331 35.7143 8.14715 36.3257 7.05877 37.4141C5.97039 38.5025 5.35894 39.9787 5.35894 41.5179V42.4107C5.36073 43.1518 5.96073 43.7518 6.69823 43.7518H43.3C43.6552 43.7518 43.9959 43.6107 44.247 43.3595C44.4982 43.1084 44.6393 42.7677 44.6393 42.4125V41.5196C44.6393 39.9804 44.0279 38.5043 42.9395 37.4159C41.8511 36.3275 40.3749 35.7161 38.8357 35.7161H11.1643L11.1625 35.7143Z" fill="#0F222D"/>
</svg>
