<svg width="50" height="50" viewBox="0 0 50 50" fill="none" xmlns="http://www.w3.org/2000/svg">
<path fill-rule="evenodd" clip-rule="evenodd" d="M41.08 37.5C35.9675 24.7325 30 21.3675 30 15V7.5H31.25C31.5815 7.5 31.8994 7.3683 32.1338 7.13388C32.3683 6.89946 32.5 6.58152 32.5 6.25V3.75C32.5 3.41848 32.3683 3.10054 32.1338 2.86612C31.8994 2.6317 31.5815 2.5 31.25 2.5H18.75C18.4184 2.5 18.1005 2.6317 17.8661 2.86612C17.6317 3.10054 17.5 3.41848 17.5 3.75V6.25C17.5 6.58152 17.6317 6.89946 17.8661 7.13388C18.1005 7.3683 18.4184 7.5 18.75 7.5H20V15C20 21.3675 14.0325 24.7325 8.91996 37.5C7.29246 41.5625 3.11246 47.5 25 47.5C46.8875 47.5 42.7075 41.5625 41.08 37.5V37.5ZM37.0375 41.8775C35.2825 42.4025 31.79 43 25 43C18.21 43 14.7175 42.4025 12.9625 41.8775C12.34 41.6925 12.0975 40.97 12.3175 40.3075C12.8675 38.6325 13.905 35.7375 15.845 32.505C20.585 24.6075 25.5025 33.7475 29.595 33.7475C33.6875 33.7475 32.565 29.845 34.155 32.505C35.6181 34.9661 36.8013 37.5832 37.6825 40.3075C37.9025 40.97 37.66 41.69 37.0375 41.8775V41.8775Z" fill="#0F222D"/>
</svg>
