<svg width="50" height="50" viewBox="0 0 50 50" fill="none" xmlns="http://www.w3.org/2000/svg">
<path d="M25 22.79L28.3643 19.4258C25.2026 15.7519 23.4657 11.0647 23.4697 6.21777C23.4697 5.72949 23.4883 5.23633 23.5225 4.75293C19.1942 5.05793 15.0788 6.74688 11.7842 9.57031L25 22.79Z" fill="#0F222D"/>
<path d="M30.5801 17.21L38.2158 9.57031C34.9689 6.78713 30.9232 5.10499 26.6602 4.76562C26.6201 5.24414 26.5977 5.72852 26.5977 6.21777C26.5937 10.2357 28.0034 14.127 30.5801 17.21V17.21Z" fill="#0F222D"/>
<path d="M32.79 19.4199C35.8726 21.9976 39.7639 23.4085 43.7822 23.4053C44.2705 23.4053 44.7588 23.3828 45.2344 23.3428C44.8956 19.0787 43.2134 15.0319 40.4297 11.7842L32.79 19.4199Z" fill="#0F222D"/>
<path d="M17.21 30.5801C14.1275 28.0022 10.2361 26.5914 6.21777 26.5947C5.72819 26.5947 5.24414 26.6156 4.76562 26.6572C5.10438 30.9213 6.78656 34.9681 9.57031 38.2158L17.21 30.5801Z" fill="#0F222D"/>
<path d="M25 27.21L21.6357 30.5742C24.7974 34.2481 26.5343 38.9353 26.5303 43.7822C26.5303 44.2705 26.5117 44.7637 26.4775 45.2471C30.8058 44.9423 34.9213 43.2533 38.2158 40.4297L25 27.21Z" fill="#0F222D"/>
<path d="M43.7822 26.5303C38.9353 26.5343 34.2481 24.7974 30.5742 21.6357L27.21 25L40.4297 38.2158C43.2552 34.9219 44.9463 30.8065 45.2529 26.4775C44.7637 26.5117 44.2744 26.5303 43.7822 26.5303Z" fill="#0F222D"/>
<path d="M22.79 25L9.57031 11.7842C6.74458 15.078 5.05352 19.1935 4.74707 23.5225C5.23535 23.4883 5.72363 23.4697 6.21191 23.4697C11.0589 23.4657 15.7461 25.2026 19.4199 28.3643L22.79 25Z" fill="#0F222D"/>
<path d="M11.7842 40.4297C15.0311 43.2129 19.0768 44.895 23.3398 45.2344C23.3809 44.7559 23.4017 44.2718 23.4023 43.7822C23.4057 39.7639 21.9948 35.8725 19.417 32.79L11.7842 40.4297Z" fill="#0F222D"/>
</svg>
