<svg width="50" height="50" viewBox="0 0 50 50" fill="none" xmlns="http://www.w3.org/2000/svg">
<path d="M34.8958 4.16667H14.0624C11.7645 4.16667 9.89575 6.03542 9.89575 8.33333V41.6667C9.89575 43.9646 11.7645 45.8333 14.0624 45.8333H34.8958C37.1937 45.8333 39.0624 43.9646 39.0624 41.6667V8.33333C39.0624 6.03542 37.1937 4.16667 34.8958 4.16667ZM14.0624 41.6667V8.33333H34.8958L34.8999 41.6667H14.0624Z" fill="#0F222D"/>
<path d="M24.4791 39.5833C25.6297 39.5833 26.5624 38.6506 26.5624 37.5C26.5624 36.3494 25.6297 35.4167 24.4791 35.4167C23.3285 35.4167 22.3958 36.3494 22.3958 37.5C22.3958 38.6506 23.3285 39.5833 24.4791 39.5833Z" fill="#0F222D"/>
</svg>
