<svg width="50" height="50" viewBox="0 0 50 50" fill="none" xmlns="http://www.w3.org/2000/svg">
<path d="M41.6667 25C41.6667 23.4167 42.5626 22.0417 43.8751 21.3333C45.1251 20.6458 45.8334 19.2292 45.8334 17.7917V12.5C45.8334 10.2083 43.9584 8.33334 41.6667 8.33334H8.33341C6.04175 8.33334 4.18758 10.1875 4.18758 12.4792V17.7917C4.18758 19.2292 4.87508 20.6458 6.14591 21.3125C7.45841 22.0417 8.33341 23.4167 8.33341 25C8.33341 26.5833 7.43758 27.9792 6.12508 28.6667C4.87508 29.3542 4.16675 30.7708 4.16675 32.2083V37.5C4.16675 39.7917 6.04175 41.6667 8.33341 41.6667H41.6667C43.9584 41.6667 45.8334 39.7917 45.8334 37.5V32.2083C45.8334 30.7708 45.1251 29.3542 43.8751 28.6667C42.5626 27.9583 41.6667 26.5833 41.6667 25V25ZM30.2084 33.5417L25.0001 30.2083L19.7917 33.5625C19.0001 34.0625 17.9792 33.3333 18.2292 32.4167L19.7917 26.4167L15.0001 22.5C14.8378 22.3661 14.7196 22.1864 14.6609 21.9843C14.6022 21.7823 14.6056 21.5673 14.6708 21.3672C14.736 21.1672 14.8599 20.9914 15.0264 20.8627C15.1929 20.734 15.3942 20.6585 15.6042 20.6458L21.7709 20.2917L24.0209 14.5625C24.3751 13.6875 25.6251 13.6875 25.9584 14.5625L28.2084 20.3125L34.3751 20.6667C35.3126 20.7292 35.7084 21.9167 34.9792 22.5208L30.1876 26.4375L31.7709 32.3958C32.0209 33.3333 31.0001 34.0625 30.2084 33.5417V33.5417Z" fill="#0F222D"/>
</svg>
